# xmcd
#
# Track frame offsets:
#	150
#	15214
#	28773
#	44039
#	54904
#	69967
#	85332
#	100270
#	113884
#	129375
#
# Disc length: 1918 seconds
#
# Revision: 0
# Processed by: cddbd v1.5.2PL0 Copyright (c) Steve Scherf et al.
# Submitted via: EasyCDDAExtractor 16.0.6.1
#
DISCID=79077c0a
DTITLE=Συλλογικός δίσκος - Λαϊκό τραγούδι 1954-1967, 1959-2
DYEAR=2008
DGENRE=Λαϊκή
TTITLE0=Καζαντζίδης Στέλιος-Μαρινέλλα - Ζιγκουάλα [Στέλιος Καζαντζίδης-Νίκος Μ
TTITLE0=ουρκάκος]
TTITLE1=Περπινιάδης Βαγγέλης - Δεν ξαναπαίζω ζάρια [Κώστας Φραγκούλης]
TTITLE2=Δούκισσα - Τι σε βασανίζει [Βασίλης Καραπατάκης]
TTITLE3=Καζαντζίδης Στέλιος - Γειτονοπούλα όμορφη [Θεόδωρος Δερβενιώτης-Χαρ. Β
TTITLE3=ασιλειάδης]
TTITLE4=Ζαγοραίος Σπύρος-Ζαγοραίου Ζωή - Της ζωής τα συντρίμμια [Δημήτρης Γκού
TTITLE4=της]
TTITLE5=Γκρέϋ Καίτη - Τα καράβια και τα τρένα [Βασίλης Τσιτσάνης-Δημήτρης Γκού
TTITLE5=της]
TTITLE6=Περπινιάδης Βαγγέλης - Βρε Μαριώ μου είσαι γλύκα [Τάκης Λαβίδας]
TTITLE7=Γαβαλάς Πάνος - Ξαναγύρισε κοντά μου [Β. Αλκαλάης]
TTITLE8=Μπιθικώτσης Γρηγόρης-Θύμη Καίτη - Χριστίνα [Βασίλης Τσιτσάνης]
TTITLE9=Αγγελόπουλος Μανώλης-Γλέρη Καίτη - Το παιδί της αμαρτίας [Μπάμπης Μπακ
TTITLE9=άλης]
EXTD=
EXTT0=
EXTT1=
EXTT2=
EXTT3=
EXTT4=
EXTT5=
EXTT6=
EXTT7=
EXTT8=
EXTT9=
PLAYORDER=
